<svg xmlns="http://www.w3.org/2000/svg" xmlns:xlink="http://www.w3.org/1999/xlink" width="300" height="300" viewBox="0 0 300 300">
  <defs>
    <clipPath id="a">
      <path d="M29.09288,134.7114c.03145-.19347-.04956-.09192-.07731.05919a6.28722,6.28722,0,0,1-.72743,2.08447c-.052.09161-.02425.09906.03987-.00721a6.468,6.468,0,0,0,.60681-1.41622,6.22718,6.22718,0,0,0,.15806-.72023" fill="#eee"/>
    </clipPath>
    <clipPath id="b">
      <path d="M51.14554,154.62714a23.17347,23.17347,0,0,0,1.34988-6.02625,41.57943,41.57943,0,0,0,.029-5.8682,16.68991,16.68991,0,0,0-1.495-5.75432,7.26371,7.26371,0,0,0-3.94422-3.68223c-1.47542-.41336-3.554-.46266-4.39851.76979a1.54224,1.54224,0,0,0,1.42089,2.42554c-.00492.002-.01187.00938-.01684.01186l.01684-.00989c-.33955,1.5616-1.78,3.10586-4.75886,3.10586a5.048,5.048,0,0,1-4.111-2.237,11.6396,11.6396,0,0,1-1.22053-5.44744,12.57037,12.57037,0,0,0-.4446-2.68261,2.395,2.395,0,0,0-1.65549-1.68095,9.9477,9.9477,0,0,0-2.075-.35051c-.772-.07253-1.26862.14021-1.42713.65019v0a7.99137,7.99137,0,0,0-2.4436.075,4.236,4.236,0,0,0-1.78352.76508,2.85029,2.85029,0,0,0-.53519.5677c1.51549-.76857,3.7919.14634,4.62809,1.067,1.00211,1.10462.94043,3.0078.78932,4.11121a5.632,5.632,0,0,1-4.591,5.08628c-1.33151.22491-5.02115.09906-5.724-3.02982l.002.00269-.00695-.00466a1.543,1.543,0,0,0,1.4212-2.42554c-.84461-1.23245-2.92335-1.18315-4.39877-.76979a7.25679,7.25679,0,0,0-3.94453,3.68223,16.64367,16.64367,0,0,0-1.49718,5.75432,41.97407,41.97407,0,0,0,.02674,5.8682,23.35609,23.35609,0,0,0,1.35205,6.02625,46.13859,46.13859,0,0,0,2.42529,5.18438c.02424.05078.05224.104.08344.16694.03048-.029.16942-.162.30216-.30937.36385-.40645,1.171-1.38254,1.48536-1.82486.314-.44236,1.35551-2.28878,1.65768-2.93674l.00248.005-.00248-.005c1.37884.91862,1.62652,1.53264,1.68349,2.44583.05919.97188-.75519,3.10834-2.03025,5.39463-.076.14021-.18971.33342-.28157.50233h0c.07381-.07182.185-.188.41807-.4416a30.27745,30.27745,0,0,0,2.453-3.06279,29.749,29.749,0,0,0,3.37063-6.19638l.00249.00989v-.01487a3.21329,3.21329,0,0,1,1.84621,1.67234c.3953.83167.08938,2.65881-1.05983,5.32433a30.6107,30.6107,0,0,1-3.15044,5.39215c-.15111.21745-.37795.50775-.51445.70562h.00249c.12433.0944.25732.20285.38885.30937a45.82357,45.82357,0,0,0,4.80593,3.25772,23.90079,23.90079,0,0,0,5.83082,2.54783,23.81783,23.81783,0,0,0,5.82812-2.54783,46.08978,46.08978,0,0,0,4.80816-3.25772c.13173-.10652.26473-.215.38911-.30937h.00244c-.13894-.19787-.3636-.48817-.51689-.70562a30.45719,30.45719,0,0,1-3.1482-5.39215c-1.14774-2.66552-1.45488-4.49266-1.06207-5.32433a3.22711,3.22711,0,0,1,1.8489-1.67234l-.00248.01487.00248-.00989a29.85294,29.85294,0,0,0,3.37043,6.19638,31.21928,31.21928,0,0,0,2.453,3.06279c.23556.25362.3465.36978.41807.4416h0c-.08943-.16891-.20087-.36212-.2769-.50233-1.277-2.28629-2.09162-4.42275-2.03243-5.39463.05423-.91319.30217-1.52721,1.681-2.44583v0c.30439.648,1.34617,2.49438,1.66021,2.93674.31428.44232,1.12146,1.41841,1.48531,1.82486.13178.14736.26949.2804.30216.30937v0c.0312-.0629.05671-.11616.08349-.16694a46.34057,46.34057,0,0,0,2.42275-5.18438" fill="#eee"/>
    </clipPath>
    <clipPath id="c">
      <path d="M28.26166,127.62632a8.05271,8.05271,0,0,0-2.33484.09191,4.46869,4.46869,0,0,0-1.88015.80591,3.23294,3.23294,0,0,0-.58749.61874.242.242,0,0,0,.30465.35887c1.357-.68757,3.53462.12929,4.33931,1.015.99466,1.09346.84112,3.10062.72744,3.91526a5.38094,5.38094,0,0,1-4.3911,4.88323c-1.16012.19463-4.5414.11859-5.36816-2.5593a1.829,1.829,0,0,0,1.37164-.84827,1.73749,1.73749,0,0,0,.26255-.90649,1.85005,1.85005,0,0,0-.3361-1.04172c-.91837-1.34612-3.0841-1.30728-4.66081-.86637a7.4908,7.4908,0,0,0-4.09533,3.809,17.01988,17.01988,0,0,0-1.523,5.84522,41.75753,41.75753,0,0,0,.028,5.90315,23.75916,23.75916,0,0,0,1.3657,6.09011,47.61878,47.61878,0,0,0,2.43467,5.21335l.08248.162a.24025.24025,0,0,0,.181.128.23205.23205,0,0,0,.20782-.06761l.0317-.029.27792-.29c.36582-.40595,1.17447-1.3828,1.50164-1.84616.28188-.39682,1.14825-1.91951,1.5542-2.71705a2.45767,2.45767,0,0,1,1.35109,2.10278v.09216a14.32371,14.32371,0,0,1-1.99976,5.17176l-.09191.15973-.19.343a.23932.23932,0,0,0,.06665.31429.23963.23963,0,0,0,.314-.024l.42552-.45a32.98308,32.98308,0,0,0,2.47231-3.08825,30.35957,30.35957,0,0,0,3.304-6.01809,2.90111,2.90111,0,0,1,1.50068,1.45016,1.8953,1.8953,0,0,1,.14264.80246,12.4382,12.4382,0,0,1-1.20471,4.32618,30.86913,30.86913,0,0,1-3.12868,5.34564l-.28405.39184-.23085.30906a.25466.25466,0,0,0-.04458.14021.24834.24834,0,0,0,.09434.18874l.15309.12554.2385.18874a46.54006,46.54006,0,0,0,4.83591,3.27949,24.92391,24.92391,0,0,0,5.89473,2.57168.21365.21365,0,0,0,.10875,0,24.87487,24.87487,0,0,0,5.89468-2.57168,46.25226,46.25226,0,0,0,4.83347-3.27949l.23851-.18874.15329-.12554a.24381.24381,0,0,0,.09657-.18874.27636.27636,0,0,0-.04453-.14021l-.2311-.30906-.28634-.39184a30.87075,30.87075,0,0,1-3.12594-5.34564,12.37933,12.37933,0,0,1-1.20491-4.32618,1.87759,1.87759,0,0,1,.14366-.80246,2.88354,2.88354,0,0,1,1.49966-1.45016,30.43507,30.43507,0,0,0,3.304,6.01809,32.169,32.169,0,0,0,2.47231,3.08825l.423.45a.24273.24273,0,0,0,.31652.024.23806.23806,0,0,0,.09658-.19366.26653.26653,0,0,0-.03-.12063L45.815,162.772l-.06163-.11118a14.37739,14.37739,0,0,1-2.00473-5.17176c0-.03369,0-.0634.00249-.09216a2.457,2.457,0,0,1,1.35109-2.10278c.40595.79754,1.27232,2.32023,1.55394,2.71705.32494.46336,1.13607,1.44021,1.50312,1.84616l.27442.29.03149.029a.24462.24462,0,0,0,.38886-.06042l.08491-.162a47.17927,47.17927,0,0,0,2.43492-5.21335,23.77507,23.77507,0,0,0,1.36322-6.09011,41.82,41.82,0,0,0,.02775-5.90564,16.70887,16.70887,0,0,0-1.52047-5.84273,7.48357,7.48357,0,0,0-4.09513-3.809c-1.577-.44091-3.74264-.47975-4.662.86637a1.8565,1.8565,0,0,0-.33508,1.04172,1.71474,1.71474,0,0,0,.26249.90649,1.82391,1.82391,0,0,0,1.37884.84827c-.27791.87382-1.23762,2.63087-4.44482,2.63087a4.8397,4.8397,0,0,1-3.90314-2.11865,9.91467,9.91467,0,0,1-1.13835-4.63555l-.04925-.71035c0-.00491-.028-.26944-.028-.26944a11.44594,11.44594,0,0,0-.42776-2.46541,2.64166,2.64166,0,0,0-1.81644-1.83551,9.87359,9.87359,0,0,0-2.12038-.36237c-.9875-.08842-1.419.26355-1.6037.63679m.38535.32372c.11372-.37794.51-.54143,1.17351-.48223a9.82212,9.82212,0,0,1,2.02628.3433,2.15948,2.15948,0,0,1,1.49744,1.52518,10.93834,10.93834,0,0,1,.40371,2.3636l.02775.26722.05174.69477a10.29083,10.29083,0,0,0,1.20247,4.85148,5.26769,5.26769,0,0,0,4.31877,2.35543c3.15541,0,4.65016-1.70281,4.99468-3.29637a.3608.3608,0,0,0,.00471-.04976.26454.26454,0,0,0-.01587-.06168c-.00447-.01187-.00224-.0243-.00721-.03617l-.00218-.00248a.24513.24513,0,0,0-.0845-.10155.21133.21133,0,0,0-.16592-.03739,1.32533,1.32533,0,0,1-1.24929-.63456,1.26013,1.26013,0,0,1,.06168-1.41967c.72743-1.06227,2.59911-1.10092,4.13276-.67321a7.015,7.015,0,0,1,3.79439,3.55643,16.50769,16.50769,0,0,1,1.47293,5.66267c.05945.92577.08841,1.89247.08841,2.83391,0,1.07293-.03885,2.10993-.11616,2.99939a23.06626,23.06626,0,0,1-1.33643,5.96107,45.39219,45.39219,0,0,1-2.34306,5.02932c-.023-.02176-.06041-.06041-.06041-.06041-.36136-.401-1.16012-1.37017-1.467-1.80559-.30217-.42055-1.34141-2.26672-1.63891-2.90275a.24665.24665,0,0,0-.3539-.09364c-1.42961.95453-1.72681,1.6312-1.78626,2.63158-.00223.03891-.00446.07482-.00446.11616a11.41638,11.41638,0,0,0,1.39568,4.13277c-.434-.52211-.97289-1.206-1.51306-1.97724a29.30134,29.30134,0,0,1-3.34268-6.14809.23507.23507,0,0,0-.13148-.13574.24584.24584,0,0,0-.18874-.00492,3.431,3.431,0,0,0-1.97176,1.78894,2.36635,2.36635,0,0,0-.19123,1.02,13.17447,13.17447,0,0,0,1.24609,4.50473,30.99849,30.99849,0,0,0,3.17449,5.43283l.2947.40371s.04485.06067.0872.11616c-.03764.03171-.20929.16694-.20929.16694a45.546,45.546,0,0,1-4.78041,3.24306,23.80165,23.80165,0,0,1-5.70725,2.509,23.798,23.798,0,0,1-5.70746-2.509,45.82547,45.82547,0,0,1-4.7829-3.24306s-.1511-.12113-.20533-.16694l.08567-.11616.29476-.40371a31.09169,31.09169,0,0,0,3.17347-5.43283,13.15469,13.15469,0,0,0,1.24681-4.50473,2.3672,2.3672,0,0,0-.19093-1.02,3.43824,3.43824,0,0,0-1.97226-1.78894.25064.25064,0,0,0-.19073.00492.233.233,0,0,0-.128.13574,29.447,29.447,0,0,1-3.34116,6.14809c-.5427.76853-1.07916,1.45041-1.51062,1.97227a11.35489,11.35489,0,0,0,1.38848-4.1278c0-.04134,0-.07725-.00244-.11616-.06168-1.00038-.35644-1.67705-1.78849-2.63158a.228.228,0,0,0-.19792-.0317.2313.2313,0,0,0-.15355.12534c-.29744.636-1.33917,2.4822-1.6389,2.90275-.30709.43542-1.10559,1.40461-1.46675,1.80559,0,0-.04012.03865-.06066.06041a45.3877,45.3877,0,0,1-2.3455-5.02932,23.0724,23.0724,0,0,1-1.33425-5.96107c-.07852-.89214-.1159-1.9287-.1159-3.00187,0-.939.02652-1.90566.08942-2.82925a16.4793,16.4793,0,0,1,1.47192-5.66485,7.00662,7.00662,0,0,1,3.79444-3.55643c1.53116-.42771,3.40558-.38906,4.13028.67321a1.25147,1.25147,0,0,1,.06168,1.41967,1.31971,1.31971,0,0,1-1.24706.63456.22991.22991,0,0,0-.20782.07381.245.245,0,0,0-.05671.21969c.74672,3.32431,4.67887,3.43581,5.99851,3.21338a5.84456,5.84456,0,0,0,4.79158-5.29166c.14857-1.09372.24048-3.10312-.852-4.30559a5.09194,5.09194,0,0,0-3.9178-1.4115A4.05075,4.05075,0,0,1,26.014,128.193a7.68153,7.68153,0,0,1,2.37573-.07508A.244.244,0,0,0,28.647,127.95Z" fill="#eee"/>
    </clipPath>
  </defs>
  <rect width="300" height="300" fill="none"/>
  <g>
    <path d="M78.28307,166.83492H66.04435c1.54181-1.36073,1.94776-6.66847,2.62813-16.00221l.134-2.17511c.36633-5.30374.63578-9.38472.59119-12.24121-.04382-2.447-.31677-4.03121-.99714-4.57508H82.08963c3.2639,0,9.79294.18007,9.79294,6.9783,0,4.53425-4.21722,7.34514-8.07106,8.34324,5.44044.54118,9.51873,3.1723,9.51873,8.79358,0,6.071-5.70948,10.87849-15.04717,10.87849m-.54489-16.907H75.24605l-.3636,5.1683c-.18128,2.26672-.27167,4.1664-.31652,6.43393,0,.3185.99714.99541,3.35334.99541,4.89531,0,8.11488-2.44582,8.11488-6.482,0-4.48546-3.6728-6.11568-8.296-6.11568m1.13339-13.87042a24.05555,24.05555,0,0,0-2.447.08943c-.36385,2.448-.59,4.80344-.7698,7.38475,0,0-.13893,2.22584-.13893,2.134h.90873c4.4396,0,8.52306-1.53958,8.52306-5.6203,0-2.35914-1.95294-3.98785-6.076-3.98785m43.14912,31.09367c-2.98969,0-3.21435-.09167-5.62031-8.33782l-.85917-3.04072c-1.45239.68158-4.03613,1.00084-8.15926,1.00084H103.2116l-.72521,1.53685c-.7247,1.63419-2.49386,4.98848-2.447,6.93894a5.72183,5.72183,0,0,0,.22735,1.58564H91.88257c2.4-2.40271,5.43673-7.978,9.652-16.9991l2.44679-5.21187c2.22243-4.71529,4.57858-10.06366,4.57858-10.83589a4.83844,4.83844,0,0,0-.45525-1.94675h7.61783s1.9953,7.56828,3.76172,13.869l1.49723,5.53087c2.58375,9.29286,4.215,13.82437,6.38782,15.59379-1.94548.2246-4.395.31627-5.34858.31627m-11.00977-27.10582-5.66784,12.19291h9.201l-3.53316-12.19291m44.14555,28.28551c-2.58572,0-3.2213-.41117-4.08173-1.58539l-9.7892-13.60244c-.76979-1.04-1.362-1.90192-2.58131-1.90192h-.23079l-.17784,2.62738c-.22811,3.5819-.36334,6.44083-.36334,8.57013.04459,2.35417.31627,3.80382.94956,4.39628h-9.46917c1.357-1.2255,1.856-5.30475,2.62585-16.00221l.13675-2.21995c.3638-5.2589.63329-9.33988.58845-12.19637-.04357-2.49188-.31652-4.03142-.99688-4.57508H144.6859c4.214,0,10.01933.72521,10.01933,7.56828,0,5.62127-3.76573,8.70313-8.43368,10.15329a22.03855,22.03855,0,0,1,1.76789,2.0869l7.117,9.42539c4.43985,5.84644,4.80248,6.11959,6.39056,6.93671-1.99377.22242-4.66674.319-6.39056.319m-12.6469-32.22877a27.2249,27.2249,0,0,0-2.72126.08942c-.27091,1.4947-.49806,4.07849-.81458,8.2489l-.18352,2.44953a8.76355,8.76355,0,0,0,1.58909.13619c4.35144,0,7.34337-2.63056,7.34337-6.61942,0-2.7205-1.90561-4.30462-5.2131-4.30462m31.27374,31.41171c-9.01944,0-14.23005-7.43406-14.23005-15.77238,0-11.60442,6.29793-20.58049,18.31276-20.58049,3.75776,0,5.52717.68036,8.56521.68036l-.90654,8.92875a9.3108,9.3108,0,0,0-8.29719-5.25894c-7.4754,0-10.51536,8.06983-10.51536,15.00284,0,7.52815,4.21692,11.64874,9.83672,11.64874,3.03753,0,5.70846-.81433,10.19889-3.944-1.81254,5.8051-6.02747,9.29514-12.96444,9.29514m61.693-.36263c-2.99689,0-3.21977-.09167-5.62426-8.33782l-.86044-3.04072c-1.44742.68158-4.03116,1.00084-8.15647,1.00084H216.6637l-.72566,1.53685c-1.04127,2.31531-2.45054,5.03206-2.45054,6.93894a5.50172,5.50172,0,0,0,.2348,1.58564H188.96841c1.40481-1.58564,1.86108-6.7121,2.53525-16.00221l.14066-2.21995c.36212-5.30374.63553-9.38446.58947-12.23771-.04606-2.35863-.271-3.85611-.90847-4.53374h9.5658c-1.36322,1.04147-1.86108,6.662-2.49462,15.95712l-.18378,2.2199c-.22441,3.44373-.67864,6.97982-.67864,10.424,0,1.58513.638,1.94776,2.26925,1.94776,5.80059,0,7.253-.133,9.88035-1.90465,1.63367-2.99147,3.48978-6.75217,5.30475-10.64963L217.434,144.624c2.31328-4.89536,4.57807-9.88506,4.57807-10.83614a4.95729,4.95729,0,0,0-.44982-1.9465h7.61068s3.08359,11.42312,3.76319,13.869l1.49546,5.53087c2.58181,9.29286,4.215,13.82437,6.3906,15.59379-1.81253.2246-4.39876.31627-5.34589.31627m-11.0157-27.10582-5.62178,12.19291h9.15468l-3.5329-12.19291m32.951,7.93186c-.81737,1.36073-1.8561,3.21709-2.48919,4.58006a49.929,49.929,0,0,0-.81732,9.83281c0,1.59056.27046,3.71713.99617,4.44482h-9.47221c1.67035-1.58564,2.35442-11.328,2.26479-14.41286a74.47013,74.47013,0,0,0-5.62178-13.73869c-1.67233-3.21679-3.62552-6.25361-4.853-6.84206,2.132-.1813,4.853-.318,6.16813-.318,2.35843,0,2.99147.318,4.44188,3.49,2.26672,5.12371,3.94448,8.97384,4.94014,11.83277,2.40744-3.7642,4.08225-6.34744,6.25736-9.88257a5.89967,5.89967,0,0,0,.9981-2.99416,3.619,3.619,0,0,0-.50278-2.128h9.38451c-1.81.40818-9.972,13.23439-11.6948,16.13592m31.68486-7.84021a9.32116,9.32116,0,0,0-7.98066-4.6259c-2.98751,0-5.61929,1.22529-5.61929,4.39754,0,2.67566,3.30844,4.48693,6.75516,6.70931,3.76319,2.3564,7.66161,5.25647,7.66161,10.28852,0,6.57139-6.39005,10.60733-13.78124,10.60733a27.26186,27.26186,0,0,1-9.78824-1.94751l.58749-8.75193a10.5394,10.5394,0,0,0,9.69855,6.257c3.67407,0,6.39061-1.76891,6.39061-4.85275,0-2.62711-2.21919-4.25856-4.9402-5.88874-5.709-3.44743-9.3384-6.211-9.3384-11.19852,0-7.47884,6.2568-9.97047,12.73653-9.97047,3.76572,0,6.11964.68036,8.52159.68036Z" fill="#eee"/>
    <g>
      <path d="M29.09288,134.7114c.03145-.19347-.04956-.09192-.07731.05919a6.28722,6.28722,0,0,1-.72743,2.08447c-.052.09161-.02425.09906.03987-.00721a6.468,6.468,0,0,0,.60681-1.41622,6.22718,6.22718,0,0,0,.15806-.72023" fill="#eee"/>
      <g clip-path="url(#a)">
        <rect x="27.3878" y="134.97905" width="2.58497" height="1.5152" transform="translate(-109.7487 126.54899) rotate(-74.27205)" fill="#eee"/>
      </g>
    </g>
    <g>
      <path d="M51.14554,154.62714a23.17347,23.17347,0,0,0,1.34988-6.02625,41.57943,41.57943,0,0,0,.029-5.8682,16.68991,16.68991,0,0,0-1.495-5.75432,7.26371,7.26371,0,0,0-3.94422-3.68223c-1.47542-.41336-3.554-.46266-4.39851.76979a1.54224,1.54224,0,0,0,1.42089,2.42554c-.00492.002-.01187.00938-.01684.01186l.01684-.00989c-.33955,1.5616-1.78,3.10586-4.75886,3.10586a5.048,5.048,0,0,1-4.111-2.237,11.6396,11.6396,0,0,1-1.22053-5.44744,12.57037,12.57037,0,0,0-.4446-2.68261,2.395,2.395,0,0,0-1.65549-1.68095,9.9477,9.9477,0,0,0-2.075-.35051c-.772-.07253-1.26862.14021-1.42713.65019v0a7.99137,7.99137,0,0,0-2.4436.075,4.236,4.236,0,0,0-1.78352.76508,2.85029,2.85029,0,0,0-.53519.5677c1.51549-.76857,3.7919.14634,4.62809,1.067,1.00211,1.10462.94043,3.0078.78932,4.11121a5.632,5.632,0,0,1-4.591,5.08628c-1.33151.22491-5.02115.09906-5.724-3.02982l.002.00269-.00695-.00466a1.543,1.543,0,0,0,1.4212-2.42554c-.84461-1.23245-2.92335-1.18315-4.39877-.76979a7.25679,7.25679,0,0,0-3.94453,3.68223,16.64367,16.64367,0,0,0-1.49718,5.75432,41.97407,41.97407,0,0,0,.02674,5.8682,23.35609,23.35609,0,0,0,1.35205,6.02625,46.13859,46.13859,0,0,0,2.42529,5.18438c.02424.05078.05224.104.08344.16694.03048-.029.16942-.162.30216-.30937.36385-.40645,1.171-1.38254,1.48536-1.82486.314-.44236,1.35551-2.28878,1.65768-2.93674l.00248.005-.00248-.005c1.37884.91862,1.62652,1.53264,1.68349,2.44583.05919.97188-.75519,3.10834-2.03025,5.39463-.076.14021-.18971.33342-.28157.50233h0c.07381-.07182.185-.188.41807-.4416a30.27745,30.27745,0,0,0,2.453-3.06279,29.749,29.749,0,0,0,3.37063-6.19638l.00249.00989v-.01487a3.21329,3.21329,0,0,1,1.84621,1.67234c.3953.83167.08938,2.65881-1.05983,5.32433a30.6107,30.6107,0,0,1-3.15044,5.39215c-.15111.21745-.37795.50775-.51445.70562h.00249c.12433.0944.25732.20285.38885.30937a45.82357,45.82357,0,0,0,4.80593,3.25772,23.90079,23.90079,0,0,0,5.83082,2.54783,23.81783,23.81783,0,0,0,5.82812-2.54783,46.08978,46.08978,0,0,0,4.80816-3.25772c.13173-.10652.26473-.215.38911-.30937h.00244c-.13894-.19787-.3636-.48817-.51689-.70562a30.45719,30.45719,0,0,1-3.1482-5.39215c-1.14774-2.66552-1.45488-4.49266-1.06207-5.32433a3.22711,3.22711,0,0,1,1.8489-1.67234l-.00248.01487.00248-.00989a29.85294,29.85294,0,0,0,3.37043,6.19638,31.21928,31.21928,0,0,0,2.453,3.06279c.23556.25362.3465.36978.41807.4416h0c-.08943-.16891-.20087-.36212-.2769-.50233-1.277-2.28629-2.09162-4.42275-2.03243-5.39463.05423-.91319.30217-1.52721,1.681-2.44583v0c.30439.648,1.34617,2.49438,1.66021,2.93674.31428.44232,1.12146,1.41841,1.48531,1.82486.13178.14736.26949.2804.30216.30937v0c.0312-.0629.05671-.11616.08349-.16694a46.34057,46.34057,0,0,0,2.42275-5.18438" fill="#eee"/>
      <g clip-path="url(#b)">
        <rect x="10.20176" y="127.12826" width="42.45192" height="45.62564" fill="#eee"/>
      </g>
    </g>
    <g>
      <path d="M28.26166,127.62632a8.05271,8.05271,0,0,0-2.33484.09191,4.46869,4.46869,0,0,0-1.88015.80591,3.23294,3.23294,0,0,0-.58749.61874.242.242,0,0,0,.30465.35887c1.357-.68757,3.53462.12929,4.33931,1.015.99466,1.09346.84112,3.10062.72744,3.91526a5.38094,5.38094,0,0,1-4.3911,4.88323c-1.16012.19463-4.5414.11859-5.36816-2.5593a1.829,1.829,0,0,0,1.37164-.84827,1.73749,1.73749,0,0,0,.26255-.90649,1.85005,1.85005,0,0,0-.3361-1.04172c-.91837-1.34612-3.0841-1.30728-4.66081-.86637a7.4908,7.4908,0,0,0-4.09533,3.809,17.01988,17.01988,0,0,0-1.523,5.84522,41.75753,41.75753,0,0,0,.028,5.90315,23.75916,23.75916,0,0,0,1.3657,6.09011,47.61878,47.61878,0,0,0,2.43467,5.21335l.08248.162a.24025.24025,0,0,0,.181.128.23205.23205,0,0,0,.20782-.06761l.0317-.029.27792-.29c.36582-.40595,1.17447-1.3828,1.50164-1.84616.28188-.39682,1.14825-1.91951,1.5542-2.71705a2.45767,2.45767,0,0,1,1.35109,2.10278v.09216a14.32371,14.32371,0,0,1-1.99976,5.17176l-.09191.15973-.19.343a.23932.23932,0,0,0,.06665.31429.23963.23963,0,0,0,.314-.024l.42552-.45a32.98308,32.98308,0,0,0,2.47231-3.08825,30.35957,30.35957,0,0,0,3.304-6.01809,2.90111,2.90111,0,0,1,1.50068,1.45016,1.8953,1.8953,0,0,1,.14264.80246,12.4382,12.4382,0,0,1-1.20471,4.32618,30.86913,30.86913,0,0,1-3.12868,5.34564l-.28405.39184-.23085.30906a.25466.25466,0,0,0-.04458.14021.24834.24834,0,0,0,.09434.18874l.15309.12554.2385.18874a46.54006,46.54006,0,0,0,4.83591,3.27949,24.92391,24.92391,0,0,0,5.89473,2.57168.21365.21365,0,0,0,.10875,0,24.87487,24.87487,0,0,0,5.89468-2.57168,46.25226,46.25226,0,0,0,4.83347-3.27949l.23851-.18874.15329-.12554a.24381.24381,0,0,0,.09657-.18874.27636.27636,0,0,0-.04453-.14021l-.2311-.30906-.28634-.39184a30.87075,30.87075,0,0,1-3.12594-5.34564,12.37933,12.37933,0,0,1-1.20491-4.32618,1.87759,1.87759,0,0,1,.14366-.80246,2.88354,2.88354,0,0,1,1.49966-1.45016,30.43507,30.43507,0,0,0,3.304,6.01809,32.169,32.169,0,0,0,2.47231,3.08825l.423.45a.24273.24273,0,0,0,.31652.024.23806.23806,0,0,0,.09658-.19366.26653.26653,0,0,0-.03-.12063L45.815,162.772l-.06163-.11118a14.37739,14.37739,0,0,1-2.00473-5.17176c0-.03369,0-.0634.00249-.09216a2.457,2.457,0,0,1,1.35109-2.10278c.40595.79754,1.27232,2.32023,1.55394,2.71705.32494.46336,1.13607,1.44021,1.50312,1.84616l.27442.29.03149.029a.24462.24462,0,0,0,.38886-.06042l.08491-.162a47.17927,47.17927,0,0,0,2.43492-5.21335,23.77507,23.77507,0,0,0,1.36322-6.09011,41.82,41.82,0,0,0,.02775-5.90564,16.70887,16.70887,0,0,0-1.52047-5.84273,7.48357,7.48357,0,0,0-4.09513-3.809c-1.577-.44091-3.74264-.47975-4.662.86637a1.8565,1.8565,0,0,0-.33508,1.04172,1.71474,1.71474,0,0,0,.26249.90649,1.82391,1.82391,0,0,0,1.37884.84827c-.27791.87382-1.23762,2.63087-4.44482,2.63087a4.8397,4.8397,0,0,1-3.90314-2.11865,9.91467,9.91467,0,0,1-1.13835-4.63555l-.04925-.71035c0-.00491-.028-.26944-.028-.26944a11.44594,11.44594,0,0,0-.42776-2.46541,2.64166,2.64166,0,0,0-1.81644-1.83551,9.87359,9.87359,0,0,0-2.12038-.36237c-.9875-.08842-1.419.26355-1.6037.63679m.38535.32372c.11372-.37794.51-.54143,1.17351-.48223a9.82212,9.82212,0,0,1,2.02628.3433,2.15948,2.15948,0,0,1,1.49744,1.52518,10.93834,10.93834,0,0,1,.40371,2.3636l.02775.26722.05174.69477a10.29083,10.29083,0,0,0,1.20247,4.85148,5.26769,5.26769,0,0,0,4.31877,2.35543c3.15541,0,4.65016-1.70281,4.99468-3.29637a.3608.3608,0,0,0,.00471-.04976.26454.26454,0,0,0-.01587-.06168c-.00447-.01187-.00224-.0243-.00721-.03617l-.00218-.00248a.24513.24513,0,0,0-.0845-.10155.21133.21133,0,0,0-.16592-.03739,1.32533,1.32533,0,0,1-1.24929-.63456,1.26013,1.26013,0,0,1,.06168-1.41967c.72743-1.06227,2.59911-1.10092,4.13276-.67321a7.015,7.015,0,0,1,3.79439,3.55643,16.50769,16.50769,0,0,1,1.47293,5.66267c.05945.92577.08841,1.89247.08841,2.83391,0,1.07293-.03885,2.10993-.11616,2.99939a23.06626,23.06626,0,0,1-1.33643,5.96107,45.39219,45.39219,0,0,1-2.34306,5.02932c-.023-.02176-.06041-.06041-.06041-.06041-.36136-.401-1.16012-1.37017-1.467-1.80559-.30217-.42055-1.34141-2.26672-1.63891-2.90275a.24665.24665,0,0,0-.3539-.09364c-1.42961.95453-1.72681,1.6312-1.78626,2.63158-.00223.03891-.00446.07482-.00446.11616a11.41638,11.41638,0,0,0,1.39568,4.13277c-.434-.52211-.97289-1.206-1.51306-1.97724a29.30134,29.30134,0,0,1-3.34268-6.14809.23507.23507,0,0,0-.13148-.13574.24584.24584,0,0,0-.18874-.00492,3.431,3.431,0,0,0-1.97176,1.78894,2.36635,2.36635,0,0,0-.19123,1.02,13.17447,13.17447,0,0,0,1.24609,4.50473,30.99849,30.99849,0,0,0,3.17449,5.43283l.2947.40371s.04485.06067.0872.11616c-.03764.03171-.20929.16694-.20929.16694a45.546,45.546,0,0,1-4.78041,3.24306,23.80165,23.80165,0,0,1-5.70725,2.509,23.798,23.798,0,0,1-5.70746-2.509,45.82547,45.82547,0,0,1-4.7829-3.24306s-.1511-.12113-.20533-.16694l.08567-.11616.29476-.40371a31.09169,31.09169,0,0,0,3.17347-5.43283,13.15469,13.15469,0,0,0,1.24681-4.50473,2.3672,2.3672,0,0,0-.19093-1.02,3.43824,3.43824,0,0,0-1.97226-1.78894.25064.25064,0,0,0-.19073.00492.233.233,0,0,0-.128.13574,29.447,29.447,0,0,1-3.34116,6.14809c-.5427.76853-1.07916,1.45041-1.51062,1.97227a11.35489,11.35489,0,0,0,1.38848-4.1278c0-.04134,0-.07725-.00244-.11616-.06168-1.00038-.35644-1.67705-1.78849-2.63158a.228.228,0,0,0-.19792-.0317.2313.2313,0,0,0-.15355.12534c-.29744.636-1.33917,2.4822-1.6389,2.90275-.30709.43542-1.10559,1.40461-1.46675,1.80559,0,0-.04012.03865-.06066.06041a45.3877,45.3877,0,0,1-2.3455-5.02932,23.0724,23.0724,0,0,1-1.33425-5.96107c-.07852-.89214-.1159-1.9287-.1159-3.00187,0-.939.02652-1.90566.08942-2.82925a16.4793,16.4793,0,0,1,1.47192-5.66485,7.00662,7.00662,0,0,1,3.79444-3.55643c1.53116-.42771,3.40558-.38906,4.13028.67321a1.25147,1.25147,0,0,1,.06168,1.41967,1.31971,1.31971,0,0,1-1.24706.63456.22991.22991,0,0,0-.20782.07381.245.245,0,0,0-.05671.21969c.74672,3.32431,4.67887,3.43581,5.99851,3.21338a5.84456,5.84456,0,0,0,4.79158-5.29166c.14857-1.09372.24048-3.10312-.852-4.30559a5.09194,5.09194,0,0,0-3.9178-1.4115A4.05075,4.05075,0,0,1,26.014,128.193a7.68153,7.68153,0,0,1,2.37573-.07508A.244.244,0,0,0,28.647,127.95Z" fill="#eee"/>
      <g clip-path="url(#c)">
        <rect x="9.96001" y="126.90111" width="42.93517" height="46.12547" fill="#eee"/>
      </g>
    </g>
  </g>
</svg>
