<svg version="1.2" xmlns="http://www.w3.org/2000/svg" viewBox="0 0 1546 300" width="1546" height="300">
	<title>logo-white (3)-svg</title>
	<defs>
		<clipPath clipPathUnits="userSpaceOnUse" id="cp1">
			<path d="m0.32 0h1545.03v299.01h-1545.03z"/>
		</clipPath>
	</defs>
	<style>
		.s0 { fill: #ffffff } 
	</style>
	<g id="Who-we-are">
		<g id="Centrica-2019/B/Who-we-are-V4">
			<g id="Footer/Desktop-blue">
				<g id="Text">
					<g id="Centrica-Logo-Col-Rev">
						<g id="Logo">
							<g id="Clip-Path: Fill-1" clip-path="url(#cp1)">
								<path id="Fill-1" fill-rule="evenodd" class="s0" d="m1197.8 142.7c-34.4 0-42.7 46.6-43.3 61.2-1.9 27.5 4.4 40.9 25.4 40.9 19.1 0 31.9-15.3 37.6-31.9h73.2c-12.1 54.8-59.8 82.9-110.1 82.9-85.3 0-104.4-47.8-105.1-89.3 0-57.4 48.4-114.2 124.1-114.2 58 0 97.5 26.8 96.8 82.3h-73.2c0.7-8.9-1.3-31.9-25.4-31.9zm-1075.9-2.6c-33.7 0-42 49.8-43.3 63.8-1.9 27.5 3.8 44.1 26.1 44.1 18.5 0 31.2-18.5 36.9-35.1h73.2c-11.4 54.8-59.2 86.1-110.1 86.1-86.6 0-104.4-51-104.4-93.2 0-56.7 47.8-116.7 124.2-116.7 57.3 0 97.4 30 96.7 85.5h-73.2c0-9.6-1.9-34.5-26.1-34.5zm1392.9 103.4c-4.5 20.4-4.5 37.6-0.6 47.9h-73.9c-3.2-6.4-3.8-15.4-3.8-23v-0.7c-10.8 14.7-36.3 28.1-61.8 28.1-56.6 0-70.6-45.3-70.6-80.4 0-56.8 36.2-123.1 104.4-123.1 29.2 0 48.4 12.1 57.3 30l5.7-24.9h73.8c0 0-26.7 128.9-30.5 146.1zm-60.5-66.4c0-19.7-7.6-34.4-29.3-34.4-26.1 0-43.3 36.3-43.3 67 0 24.2 11.5 33.8 28.7 33.8 24.2 0 43.9-25.5 43.9-66.4zm-749.9-79.7l12.7-57.5c0 0 8.3 0 32.5-0.6 26.7-0.6 38.2-1.3 38.2-1.3l-13.4 59.4h52.2l-11.4 49.1h-49.7l-12.7 58.7c-1.3 6.4-3.2 14.1-3.2 21.1-0.7 8.3 5.7 15.3 16.5 15.3 7 0 17.2-0.6 29.3-2.6l-10.8 52.4c-13.4 2.5-32.5 3.8-45.8 3.8-52.2 0-74.5-17.9-62.4-73.4 0 0 7-31.3 12.7-63.8 3.2-17.2 1.3-31.9-3.2-42.7-5.7-11.5-15.9-17.9-15.9-17.9zm315.7-28.1c-11.4-17.2-1.9-44 21.1-58.7 22.9-15.3 50.9-14 62.3 3.8 10.9 17.3 2 43.4-21 58.7-23.5 14.7-50.9 13.4-62.4-3.8zm59.9 28.1l-40.1 194h-73.9l40.1-194zm-776 111.7c-0.6 10.8 1.3 19.7 5.1 27.4 3.8 7 11.5 14 25.5 14 15.9 0 23.5-7 28.6-17.2h71.3c-5.1 12.8-29.9 64.4-103.1 64.4-71.3 0-101.9-37-101.9-88.6 0-83.6 65.6-118.7 121.6-118.7 51.6 0 94.9 26.8 94.9 85.5 0 12.7-1.3 23.6-3.8 33.2zm6.3-38.3h65.6c3.8-23-6.4-35.2-27.4-35.2-19.7 0-33.1 15.4-38.2 35.2zm606-73.4l-7.6 33.2v0.6c11.5-18.5 33.8-35.1 57.3-35.1 8.9 0 15.3 0.6 21 3.2l-14 66.4c-12.1-4.5-19.1-5.2-30.5-5.2-23.6 0-38.9 14.1-46.5 49.8l-17.2 81.1h-73.8l40.1-194zm-434.8 0h71.3l-7.7 27.4c15.3-17.2 35.7-32.5 67.5-32.5 25.5 0 57.3 12.1 57.3 52.3 0 8.9-1.9 23-5.1 37l-23.5 109.8h-72.6l19.1-88.7c1.9-11.5 5.7-24.9 5.7-32.6 0-12.1-8.9-18.5-21-18.5-23.5 0-31.2 16.6-35.6 37l-21.7 102.8h-73.8z"/>
							</g>
						</g>
					</g>
				</g>
			</g>
		</g>
	</g>
</svg>