<svg version="1.2" xmlns="http://www.w3.org/2000/svg" viewBox="0 0 1519 1312" width="1519" height="1312">
	<title>loyds banking-svg</title>
	<style>
		.s0 { fill: #ffffff } 
	</style>
	<g id="Layer">
		<g id="Layer">
			<g id="Layer">
				<g id="Layer">
					<g id="Layer">
						<g id="Layer">
							<g id="Layer">
								<g id="Layer">
									<path id="Layer" fill-rule="evenodd" class="s0" d="m1459.7 690.6c28.8 21 58.5 36.4 58.5 69.8 0 9.7-12.5 19.3-40.3 19.3-21.1 0-44.1-5.8-54.7-21.2-8.6-11.5 3.9-26.8-3.8-38.2-5.8-9.6-19.2-4.9-27.9-9.6-10.5-5.8-11.4-10.5-18.2-24.9-7.6-17.2-33.6-45.9-64.3-76.5-25.9-25.8-53.7-39.2-66.2-38.2-8.7 0.9-11.6 0.9-20.2 0.9-22.1 0-41.3 21.1-73 34.4-22 9.6-34.5 15.3-48.9 17.3l-4.8 5.7 28.8-0.9c26.8 0 62.4-3.9 89.2-3.9 28 0 41.4 24.9 52 50.7 21.1 52.6 52.8 128.2 90.2 191.3 18.2 29.7 33.6 48.9 33.6 85.3 0 11.5-1 26.8-16.4 26.8-21.1 0-74.8-22-74.8-46 0-18.2 14.4-25.9 14.4-44.1 0-11.4-17.3-9.5-21.1-20-13.5-56.4-29.8-112-61.5-145.5-16.4-17.2-18.3-24.9-34.6-24.9-8.6 0-17.3 2-25 4.9-44.1 16.2-102.6 65.1-175.5 87.1-27.9 8.6-32.7-7.7-61.4-1.9h1.9c-23.2 4.7-41.4 18.1-73.1 26.7-44.1 12.5-119.9 18.2-180.4 10.6-43.1-5.8-98.9-14.4-122.9-13.4-18.2 52.6-57.6 121.5-115.1 148.4-30.7 13.3-40.3 32.4-30.7 66.8 11.5 43 49.9 74.6 70 111 18.2 31.5 48 81.3 79.6 97.5 31.7 16.3 51 40.2 51 60.2 0 9.6-3.9 15.3-13.5 15.3h-63.3c-9.7 0-14.5-5.7-16.4-9.6-8.6-16.2-2.9-31.5-14.3-45.8-8.7-10.5-15.4-7.7-26-16.2-19.2-18.2-4.8-28.7-19.2-51.8-40.3-63-57.5-78.3-91.1-123.3-19.2-23.9-42.2-35.4-42.2-66.9 0-38.2 38.3-44.9 37.4-83.3-25 18.2-53.8 32.6-98 38.4-5.8 0.9-21.1 12.4-27.8 20.1-15.4 15.2-21.1 30.5-23.1 53.5-4.8 51.6-15.3 104.2-8.6 155.8 8.6 33.6 14.4 45 42.2 63.2 17.3 11.4 37.5 27.7 39.4 51.6 0 6.6-1.9 14.3-11.6 14.3h-68.1c-6.7 0-12.4-4.8-14.4-8.6-7.7-13.4-2.9-22.9-5.7-38.2-6.8-31.5-42.3-29.6-42.3-62.1 0-9.7 5.8-22.1 6.8-42.2 1.9-43.9 15.3-114.7 1.9-200.7-5.8-49.9 46-51.8 72.9-95.8 16.3-24.9 11.5-14.3 21.1-32.5 9.6-19.1 7.7-32.5 6.8-44 0-14.4-14.5-45.1-4.8-107.2 3.8-27.8 17.2-55.5 35.5-79.4 0-1 0-4.8-5.8-4.8-26.9 2-26.9-4.8-45.1-4.8-17.3 0-30.7 14.4-33.6 22-8.6-3.8-12.4-13.4-12.4-19.1 0-9.6 1.8-18.2 11.4-27.7 3.9-3.8 0-5.8-4.7-5.8-21.2 0-41.3 25.8-46.1 44-12.5-1.9-13.4-18.2-19.2-18.2-5.7 0-9.6 8.7-9.6 17.3 0 61.2 99.8 74.6 99.8 154.9 0 92.9-112.3 73.7-112.3 107.2 0 6.7 4.8 12.4 13.5 16.3-3.9 8.6-13.5 12.4-24 12.4-25 0-43.2-18.1-43.2-43 0-50.7 68.1-51.7 68.1-90 0-18.2-11.5-24-22.1-32.5-65.2-46-101.6-91.9-101.6-167.4 0-81.3 56.5-143.6 130.5-143.6 107.4 0 110.3 123.5 208.3 134 36.4-24.8 79.6-39.2 121.8-39.2 63.4 0 91.2 16.3 158.4 16.3 27 0 72.1-7.7 125.8-44 20.1-13.4 28.8-16.2 47-32.6 42.2-36.4 81.6-107.1 81.6-157.8v2.8c0-16.2-3.9-25.8-11.6-25.8-23 0-43.1 21.1-66.2 43.1-14.4 15.3 7.7 22-24.9 40.1-11.5 5.8-25-4.8-37.4-4.8-26 0-37.5-30.5-37.5-57.3 0-13.4 10.6-17.3 16.3-29.7 13.5-25.8 12.5-35.3 25-61.2 7.7-17.2 21.1-28.7 20.2-41.1 0-4.7-3.9-7.7-3.9-12.4 0-26 34.6-43.2 34.6-69 0-14.3-16.4-21-20.2-32.5-3.8-11.5-0.9-14.3-0.9-14.3 0.9-2 2.8-2.9 4.7-2.9 13.5 0 19.3 14.3 31.7 22 1-17.2-4.8-21.1-4.8-33.5 0-6.7-0.9-17.2 5.8-17.2 8.6 0 7.6 11.5 15.3 17.2 9.6 7.6 18.3 6.7 28.8 13.4 13.4 8.6 21.1 22.9 25.9 23.9 13.4 1.9 17.3-14.4 10.6-23.9 15.3-1 30.7 11.5 50.9 11.5 31.7 0 42.3 8.6 48 13.3 20.2 17.3 24 30.6 46.1 30.6 11.5 0 17.3-9.5 20.1-13.3 15.4 11.4 16.4 40.1 0 64 6.7 20.3 35.5 22.1 49 31.7 13.4 9.6 11.5 14.3 21.1 20.1 7.7 4.8 14.4 3.8 20.1 0 6.8 26.7-16.3 50.7-44.1 54.5 1 34.4 37.4 55.4 53.7 64.1-9.6 21-26.9 27.7-42.2 31.5 4.8 21.1 27.8 51.7 16.3 79.4-10.5-4.8-25.9 0-25.9 15.3 0 17.2 22.1 26-0.9 38.4-10.6 5.7-12.6 21 6.6 35.4 25-6.7 49-5.8 76.8-5.8 17.3 0 40.3-4.8 55.7-4.8 28.9 0 46.1 11.5 67.3 34.5 52.8 57.3 100.7 117.6 155.4 158.7z"/>
								</g>
							</g>
						</g>
					</g>
				</g>
			</g>
		</g>
	</g>
</svg>